<?xml version="1.0" encoding="utf-8"?>
<!-- Generator: Adobe Illustrator 27.2.0, SVG Export Plug-In . SVG Version: 6.00 Build 0)  -->
<svg version="1.1" id="Layer_1" xmlns="http://www.w3.org/2000/svg" xmlns:xlink="http://www.w3.org/1999/xlink" x="0px" y="0px"
	 width="64px" height="64px" viewBox="0 0 64 64" style="enable-background:new 0 0 64 64;" xml:space="preserve">
<style type="text/css">
	.st0{fill:#512BD4;}
	.st1{fill:#FFFFFF;}
</style>
<rect class="st0" width="64" height="64"/>
<path class="st1" d="M11.4,40.9c-0.5,0-0.8-0.2-1.2-0.5c-0.3-0.3-0.5-0.7-0.5-1.1c0-0.4,0.2-0.8,0.5-1.1c0.3-0.3,0.7-0.5,1.2-0.5
	c0.5,0,0.8,0.2,1.2,0.5c0.3,0.3,0.5,0.7,0.5,1.1c0,0.4-0.2,0.8-0.5,1.1C12.3,40.7,11.9,40.9,11.4,40.9z"/>
<path class="st1" d="M29.5,40.6h-2.9l-7.7-12.2c-0.2-0.3-0.4-0.6-0.5-1h-0.1c0.1,0.4,0.1,1.1,0.1,2.3v10.9h-2.6V24h3.1l7.5,11.9
	c0.3,0.5,0.5,0.8,0.6,1h0c-0.1-0.4-0.1-1.2-0.1-2.2V24h2.6V40.6z"/>
<path class="st1" d="M42.2,40.6h-9.1V24h8.7v2.3h-6.1v4.7h5.6v2.3h-5.6v4.9h6.4V40.6z"/>
<path class="st1" d="M55.1,26.3h-4.7v14.3h-2.7V26.3h-4.6V24h12V26.3z"/>
</svg>
