<?xml version="1.0" encoding="utf-8"?>
<!-- Generator: Adobe Illustrator 27.2.0, SVG Export Plug-In . SVG Version: 6.00 Build 0)  -->
<svg version="1.1" id="Layer_1" xmlns="http://www.w3.org/2000/svg" xmlns:xlink="http://www.w3.org/1999/xlink" x="0px" y="0px"
	 width="64px" height="64px" viewBox="0 0 64 64" style="enable-background:new 0 0 64 64;" xml:space="preserve">
<style type="text/css">
	.st0{fill-rule:evenodd;clip-rule:evenodd;fill:#00ACD7;}
	.st1{fill:#00ACD7;}
</style>
<g>
	<path class="st0" d="M6.4,27.6c-0.1,0-0.1-0.1-0.1-0.1l0.6-0.8c0.1-0.1,0.2-0.1,0.3-0.1h10.5c0.1,0,0.1,0.1,0.1,0.2l-0.5,0.8
		c-0.1,0.1-0.2,0.2-0.3,0.2L6.4,27.6z"/>
	<path class="st0" d="M2,30.3c-0.1,0-0.1-0.1-0.1-0.1l0.6-0.8c0.1-0.1,0.2-0.1,0.3-0.1h13.4c0.1,0,0.2,0.1,0.1,0.2l-0.2,0.7
		c0,0.1-0.1,0.2-0.3,0.2L2,30.3z"/>
	<path class="st0" d="M9.1,33C9,33,8.9,32.9,9,32.8L9.4,32c0.1-0.1,0.2-0.2,0.3-0.2h5.9c0.1,0,0.2,0.1,0.2,0.2l-0.1,0.7
		c0,0.1-0.1,0.2-0.2,0.2L9.1,33z"/>
	<g transform="translate(55)">
		<path class="st0" d="M-15.5,27c-1.8,0.5-3.1,0.8-4.9,1.3c-0.4,0.1-0.5,0.1-0.9-0.3c-0.4-0.5-0.8-0.8-1.4-1.1
			c-1.8-0.9-3.6-0.6-5.3,0.4c-2,1.3-3,3.2-3,5.6c0,2.3,1.6,4.3,4,4.6c2,0.3,3.7-0.4,5-1.9c0.3-0.3,0.5-0.7,0.8-1.1
			c-1.1,0-2.4,0-5.7,0c-0.6,0-0.8-0.4-0.6-0.9c0.4-0.9,1.1-2.4,1.5-3.2c0.1-0.2,0.3-0.5,0.7-0.5h10.7c-0.1,0.8-0.1,1.6-0.2,2.4
			c-0.3,2.1-1.1,4.1-2.4,5.8c-2.1,2.8-4.9,4.5-8.4,5c-2.9,0.4-5.5-0.2-7.9-1.9c-2.2-1.6-3.4-3.8-3.7-6.5c-0.4-3.2,0.6-6.1,2.5-8.6
			c2.1-2.7,4.8-4.5,8.2-5.1c2.8-0.5,5.4-0.2,7.8,1.4c1.6,1,2.7,2.4,3.4,4.1C-15,26.8-15.1,26.9-15.5,27z"/>
		<path class="st1" d="M-5.7,43.3c-2.7-0.1-5.1-0.8-7.2-2.6c-1.7-1.5-2.8-3.4-3.2-5.7c-0.5-3.3,0.4-6.3,2.4-8.9
			c2.1-2.8,4.7-4.3,8.2-4.9c3-0.5,5.8-0.2,8.4,1.5c2.3,1.6,3.8,3.7,4.1,6.5c0.5,4-0.6,7.2-3.4,9.9c-1.9,2-4.3,3.2-7,3.8
			C-4.2,43.1-5,43.2-5.7,43.3z M1.2,31.4c0-0.4,0-0.7-0.1-1c-0.5-2.9-3.2-4.5-6-3.9c-2.7,0.6-4.5,2.3-5.1,5.1
			c-0.5,2.3,0.6,4.6,2.7,5.5c1.6,0.7,3.2,0.6,4.8-0.2C-0.2,35.8,1.1,33.9,1.2,31.4L1.2,31.4z"/>
	</g>
</g>
</svg>
