<?xml version="1.0" encoding="utf-8"?>
<!-- Generator: Adobe Illustrator 27.2.0, SVG Export Plug-In . SVG Version: 6.00 Build 0)  -->
<svg version="1.1" id="Layer_1" xmlns="http://www.w3.org/2000/svg" xmlns:xlink="http://www.w3.org/1999/xlink" x="0px" y="0px"
	 width="64px" height="64px" viewBox="0 0 64 64" style="enable-background:new 0 0 64 64;" xml:space="preserve">
<style type="text/css">
	.st0{fill:#E66D17;}
	.st1{fill:none;stroke:#E66D17;stroke-width:4;}
</style>
<path class="st0" d="M10.2,53H53c1.1,0,1.9,0.9,1.9,1.9l0,0c0,1.1-0.9,1.9-1.9,1.9H10.2c-1.1,0-1.9-0.9-1.9-1.9l0,0
	C8.3,53.9,9.1,53,10.2,53z"/>
<path class="st1" d="M10.2,16.4c0-1.1,0-1.8,0-2.4c0-0.5,0.1-0.7,0.2-0.8c0.2-0.4,0.5-0.7,0.9-0.9c0.1,0,0.3-0.1,0.8-0.2
	c0.6,0,1.3,0,2.4,0h30.3c1.1,0,1.8,0,2.4,0c0.5,0,0.7,0.1,0.8,0.2c0.4,0.2,0.7,0.5,0.9,0.9l1.7-0.9l-1.7,0.9c0,0.1,0.1,0.3,0.2,0.8
	c0,0.6,0,1.3,0,2.4v11.3c0,5.6,0,7.9-0.6,9.8c-1.3,4.4-4.7,7.8-9.1,9.1c-1.9,0.6-4.2,0.6-9.8,0.6s-7.9,0-9.8-0.6
	c-4.4-1.3-7.8-4.7-9.1-9.1c-0.6-1.9-0.6-4.2-0.6-9.8V16.4z"/>
<path class="st1" d="M49.1,12.1h7.8c1.1,0,1.9,0.9,1.9,1.9v4.6c0,2.3-1.4,4.4-3.5,5.4l-6.2,2.7V12.1z"/>
</svg>
