<?xml version="1.0" encoding="utf-8"?>
<!-- Generator: Adobe Illustrator 27.2.0, SVG Export Plug-In . SVG Version: 6.00 Build 0)  -->
<svg version="1.1" id="Layer_1" xmlns="http://www.w3.org/2000/svg" xmlns:xlink="http://www.w3.org/1999/xlink" x="0px" y="0px"
	 width="64px" height="64px" viewBox="0 0 64 64" style="enable-background:new 0 0 64 64;" xml:space="preserve">
<style type="text/css">
	.st0{fill:#3574F0;}
</style>
<path class="st0" d="M7.2,23.4H16c2.6,0,4.4,0.8,5.6,2.2c1.2,1.5,1.5,3.4,1.1,6c-0.2,1.2-0.5,2.3-1,3.4c-0.5,1.1-1.2,2.1-2.1,3
	c-1.1,1.1-2.2,1.8-3.5,2.1c-1.2,0.3-2.5,0.5-3.8,0.5H8.3l-1.2,6.2H2.6L7.2,23.4z M11,27.1l-2,9.8c0.1,0,0.3,0,0.4,0
	c0.2,0,0.3,0,0.5,0c2.1,0,3.8-0.2,5.2-0.6c1.4-0.5,2.3-2,2.8-4.8c0.4-2.3,0-3.6-1.2-3.9c-1.2-0.3-2.6-0.5-4.3-0.5
	c-0.3,0-0.5,0-0.7,0C11.5,27.2,11.2,27.2,11,27.1L11,27.1z"/>
<path class="st0" d="M27.8,17.2h4.5L31,23.4h4c2.2,0,3.9,0.5,5,1.4c1.1,0.9,1.4,2.5,1,5l-2.2,10.8h-4.6l2.1-10.4
	c0.2-1.1,0.2-1.9-0.2-2.3c-0.3-0.5-1.1-0.7-2.2-0.7l-3.6,0l-2.7,13.4h-4.5L27.8,17.2z"/>
<path class="st0" d="M45.8,23.4h8.7c2.6,0,4.4,0.8,5.6,2.2c1.2,1.5,1.5,3.4,1.1,6c-0.2,1.2-0.5,2.3-1,3.4c-0.5,1.1-1.2,2.1-2.1,3
	c-1.1,1.1-2.2,1.8-3.5,2.1c-1.2,0.3-2.5,0.5-3.8,0.5h-3.9l-1.2,6.2h-4.5L45.8,23.4z M49.7,27.1l-2,9.8c0.1,0,0.3,0,0.4,0
	c0.2,0,0.3,0,0.5,0c2.1,0,3.8-0.2,5.2-0.6c1.4-0.5,2.3-2,2.8-4.8c0.4-2.3,0-3.6-1.2-3.9c-1.2-0.3-2.6-0.5-4.3-0.5
	c-0.3,0-0.5,0-0.7,0C50.1,27.2,49.9,27.2,49.7,27.1L49.7,27.1z"/>
</svg>
